{"title":"Texas Chainsaw - Cam - HP - 2013.mpg","uid":8032394,"size":1263198208,"categoryP":"video","categoryS":"movies","magnet":"?xt=urn:btih:94048ec66c086ed919eb271cf6e4f320b0e46cce&amp;dn=Texas+Chainsaw+-+Cam+-+HP+-+2013.mpg&amp;tr=udp%3A%2F%2Ftracker.openbittorrent.com%3A80&amp;tr=udp%3A%2F%2Fopen.demonii.com%3A1337&amp;tr=udp%3A%2F%2Ftracker.coppersurfer.tk%3A6969&amp;tr=udp%3A%2F%2Fexodus.desync.com%3A6969","seeders":1,"leechers":0,"uploader":"SaM","files":1,"time":1358447190,"description":"\nFormat                                   : MPEG-PS\nFile size                                : 1.18 GiB\nDuration                                 : 1h 26mn\nOverall bit rate mode                    : Variable\nOverall bit rate                         : 1 955 Kbps\nWriting library                          : Created by Nero\n\nVideo\nID                                       : 224 (0xE0)\nFormat                                   : MPEG Video\nFormat version                           : Version 2\nFormat profile                           : Main@Main\nFormat settings, BVOP                    : Yes\nFormat settings, Matrix                  : Custom\nFormat settings, GOP                     : M=3, N=15\nDuration                                 : 1h 26mn\nBit rate mode                            : Variable\nBit rate                                 : 1 724 Kbps\nMaximum bit rate                         : 9 641 Kbps\nWidth                                    : 352 pixels\nHeight                                   : 480 pixels\nDisplay aspect ratio                     : 4:3\nFrame rate                               : 29.970 fps\nStandard                                 : NTSC\nColor space                              : YUV\nChroma subsampling                       : 4:2:0\nBit depth                                : 8 bits\nScan type                                : Progressive\nScan order                               : Bottom Field First\nCompression mode                         : Lossy\nBits/(Pixel*Frame)                       : 0.340\nStream size                              : 1.04 GiB (88%)\nWriting library                          : Created by Nero\n\nAudio\nID                                       : 189 (0xBD)-128 (0x80)\nFormat                                   : AC-3\nFormat/Info                              : Audio Coding 3\nMode extension                           : CM (complete main)\nMuxing mode                              : DVD-Video\nDuration                                 : 1h 26mn\nBit rate mode                            : Constant\nBit rate                                 : 192 Kbps\nChannel(s)                               : 2 channels\nChannel positions                        : Front: L R\nSampling rate                            : 48.0 KHz\nBit depth                                : 16 bits\nCompression mode                         : Lossy\nDelay relative to video                  : -34ms\nStream size                              : 118 MiB (10%)\n &lt;a href=&quot;\nhttp://i.imgur.com/0Q8NQ.png&quot; rel=&quot;nofollow&quot; target=&quot;_NEW&quot;&gt;\nhttp://i.imgur.com/0Q8NQ.png&lt;/a&gt;\n &lt;a href=&quot;\nhttp://i.imgur.com/UqaLB.png&quot; rel=&quot;nofollow&quot; target=&quot;_NEW&quot;&gt;\nhttp://i.imgur.com/UqaLB.png&lt;/a&gt;\n &lt;a href=&quot;\nhttp://i.imgur.com/2oFOA.png&quot; rel=&quot;nofollow&quot; target=&quot;_NEW&quot;&gt;\nhttp://i.imgur.com/2oFOA.png&lt;/a&gt;","torrent":{"xt":"urn:btih:94048ec66c086ed919eb271cf6e4f320b0e46cce","amp;dn":"Texas+Chainsaw+-+Cam+-+HP+-+2013.mpg","amp;tr":["udp%3A%2F%2Ftracker.openbittorrent.com%3A80","udp%3A%2F%2Fopen.demonii.com%3A1337","udp%3A%2F%2Ftracker.coppersurfer.tk%3A6969","udp%3A%2F%2Fexodus.desync.com%3A6969"],"infoHash":"94048ec66c086ed919eb271cf6e4f320b0e46cce","infoHashBuffer":{"type":"Buffer","data":[148,4,142,198,108,8,110,217,25,235,39,28,246,228,243,32,176,228,108,206]},"announce":[],"urlList":[]}}